<svg width="160" height="44" viewBox="0 0 160 44" fill="none" xmlns="http://www.w3.org/2000/svg">
<path d="M77.779 27.0714L71.0183 11.8797H67.6198V31.8699H70.976V19.162L76.623 31.8699H78.9359L84.5548 19.1943V31.8699H87.911V11.8797H84.5407L77.779 27.0714Z" fill="black"/>
<path d="M103.111 17.7415C102.687 17.2832 102.176 16.8775 101.582 16.5285C100.548 15.9205 99.3196 15.6129 97.9303 15.6129C96.5409 15.6129 95.223 15.9579 94.071 16.6398C92.9171 17.3227 91.9986 18.2949 91.3406 19.5302C90.6867 20.7584 90.3557 22.198 90.3557 23.8107C90.3557 25.4233 90.6867 26.8478 91.3386 28.1013C91.9955 29.3639 92.908 30.3594 94.0509 31.0615C95.1948 31.7637 96.4906 32.1198 97.9021 32.1198C99.3136 32.1198 100.499 31.8072 101.542 31.19C102.15 30.8299 102.674 30.41 103.11 29.9345V31.8719H106.494V15.8628H103.11V17.7425L103.111 17.7415ZM102.477 21.0579C102.898 21.8389 103.111 22.7747 103.111 23.838C103.111 24.9013 102.897 25.8442 102.476 26.6343C102.058 27.4164 101.488 28.0204 100.782 28.4291C100.073 28.8409 99.2794 29.0493 98.4252 29.0493C97.5711 29.0493 96.7834 28.8409 96.0842 28.4301C95.387 28.0214 94.8205 27.4164 94.403 26.6354C93.9805 25.8452 93.7672 24.8952 93.7672 23.8117C93.7672 22.7282 93.9805 21.8116 94.402 21.0306C94.8195 20.2576 95.3839 19.6637 96.0811 19.2631C96.7824 18.8605 97.5711 18.6561 98.4263 18.6561C99.2814 18.6561 100.073 18.8645 100.783 19.2763C101.49 19.686 102.059 20.2849 102.478 21.0589L102.477 21.0579Z" fill="black"/>
<path d="M118.797 23.3999C118.105 23.1085 117.199 22.8091 116.107 22.5106C115.266 22.2769 114.601 22.0634 114.13 21.8753C113.7 21.7043 113.342 21.4756 113.064 21.1964C112.825 20.9556 112.708 20.6521 112.708 20.2697C112.708 19.778 112.905 19.4057 113.329 19.0971C113.784 18.7663 114.421 18.5984 115.222 18.5984C116.088 18.5984 116.778 18.8068 117.274 19.2185C117.762 19.6232 118.021 20.1493 118.068 20.8251L118.096 21.2247H121.445L121.423 20.7735C121.343 19.1801 120.737 17.9033 119.618 16.9797C118.517 16.0711 117.067 15.6098 115.305 15.6098C114.169 15.6098 113.139 15.8132 112.244 16.2138C111.335 16.6215 110.62 17.186 110.119 17.8912C109.61 18.6075 109.351 19.4077 109.351 20.2697C109.351 21.3472 109.64 22.2354 110.208 22.9102C110.752 23.5577 111.415 24.0534 112.18 24.3822C112.903 24.6939 113.844 25.0034 114.979 25.3029C116.166 25.6064 117.048 25.914 117.601 26.2175C118.049 26.4643 118.258 26.8144 118.258 27.3192C118.258 27.8241 118.042 28.2409 117.601 28.5818C117.13 28.945 116.459 29.1291 115.607 29.1291C114.679 29.1291 113.929 28.9167 113.375 28.4968C112.838 28.0891 112.546 27.5823 112.485 26.9459L112.448 26.5574H109.022L109.049 27.0127C109.11 28.0163 109.434 28.9187 110.014 29.6927C110.589 30.4595 111.377 31.0635 112.358 31.4874C113.324 31.9052 114.426 32.1167 115.634 32.1167C116.77 32.1167 117.796 31.9133 118.682 31.5117C119.584 31.104 120.295 30.5293 120.796 29.8029C121.303 29.0684 121.56 28.2328 121.56 27.3101C121.538 26.2913 121.25 25.4466 120.7 24.8001C120.173 24.1809 119.532 23.7085 118.795 23.3979L118.797 23.3999Z" fill="black"/>
<path d="M128.131 12.0457H124.775V15.8608H122.823V18.7937H124.775V27.294C124.775 28.8874 125.173 30.063 125.957 30.7894C126.732 31.5067 127.884 31.8709 129.381 31.8709H132.063V28.8834H129.793C129.15 28.8834 128.694 28.768 128.469 28.5485C128.248 28.333 128.131 27.9 128.131 27.295V18.7947H132.063V15.8618H128.131V12.0467V12.0457Z" fill="black"/>
<path d="M145.18 16.6084C144.02 15.9478 142.673 15.6129 141.175 15.6129C139.677 15.6129 138.262 15.9518 137.076 16.6216C135.881 17.2953 134.941 18.2696 134.282 19.518C133.628 20.7553 133.297 22.2092 133.297 23.839C133.297 25.4689 133.638 26.9308 134.311 28.1772C134.988 29.4317 135.936 30.4141 137.128 31.0959C138.315 31.7758 139.677 32.1198 141.175 32.1198C143.057 32.1198 144.661 31.6301 145.939 30.665C147.22 29.6988 148.086 28.4271 148.514 26.8842L148.665 26.3389H145.104L145.005 26.6273C144.739 27.3941 144.292 27.99 143.639 28.4483C142.991 28.9016 142.162 29.1312 141.175 29.1312C139.952 29.1312 138.944 28.7559 138.093 27.984C137.342 27.3031 136.9 26.4006 136.751 25.2352H148.708L148.748 24.8497C148.805 24.3034 148.833 23.7763 148.833 23.2846C148.833 21.8369 148.515 20.5166 147.887 19.3602C147.255 18.1978 146.345 17.2711 145.18 16.6074V16.6084ZM138.122 19.7052C138.937 18.9616 139.9 18.6004 141.066 18.6004C141.875 18.6004 142.62 18.7664 143.282 19.0952C143.929 19.4169 144.448 19.8924 144.826 20.5105C145.141 21.0265 145.326 21.6376 145.379 22.3306H136.793C136.969 21.2207 137.407 20.3588 138.123 19.7052H138.122Z" fill="black"/>
<path d="M159.072 15.5846C157.829 15.5846 156.752 15.8466 155.874 16.3626C155.405 16.6387 154.991 16.9756 154.634 17.3722V15.8618H151.277V31.8709H154.634V23.2027C154.634 20.3648 155.835 19.0425 158.412 19.0425H159.5V15.5846H159.072Z" fill="black"/>
<path d="M36.2872 20.7726C38.0478 22.6988 40.0307 23.9908 42.3638 25.1198C42.2058 27.7756 41.6313 30.756 40.5368 33.1699C43.1877 37.5759 52.535 38.0322 53.8439 32.3586C55.1809 26.5615 46.2139 24.9924 42.3396 22.9669C35.7067 19.4988 37.5015 16.2847 33.5899 11.6663C22.2094 -1.77315 0.803536 11.1584 7.18294 27.9344C8.95059 32.5842 14.8169 37.8632 19.9729 37.8632H23.8292V43.8767C12.1498 45.1768 0.909172 36.03 0.067102 24.1709C-1.56975 1.14256 27.1642 -8.90563 39.8536 9.64186C40.3537 10.3723 41.6012 12.3036 41.8134 13.0665C41.9382 13.5187 41.7279 13.7767 41.7652 14.1935C41.9784 16.6145 44.3427 17.787 46.2793 18.6895C51.534 21.1378 58.183 22.1009 59.354 28.9643C60.4959 35.6587 56.1809 40.9458 49.6758 41.9343C35.7862 44.0437 31.7156 28.3198 24.2728 19.9278L23.8292 19.6617V34.8554C23.0314 34.9323 18.4276 34.8443 18.1852 34.1219L18.319 9.76933C20.0907 9.24426 22.0173 8.96098 23.8241 9.46076L35.7932 26.7841L36.2882 20.7746L36.2872 20.7726Z" fill="#FF5B23"/>
<path d="M45.1988 4.67338C50.2633 4.15438 55.1246 5.84695 58.2826 9.9069L54.4103 13.6249C53.4505 12.9895 52.8932 12.0962 51.8881 11.4629C49.371 9.87858 45.8648 9.59226 43.2592 11.0946L40.1957 6.45702C41.6072 5.50501 43.5097 4.84537 45.1978 4.67338H45.1988Z" fill="#FF5B23"/>
</svg>
